<svg xmlns="http://www.w3.org/2000/svg" xmlns:xlink="http://www.w3.org/1999/xlink" width="500" zoomAndPan="magnify" viewBox="0 0 375 374.999991" height="500" preserveAspectRatio="xMidYMid meet" version="1.0"><defs><g/><clipPath id="0b17d78f2a"><path d="M 104.613281 128 L 270.363281 128 L 270.363281 189.457031 L 104.613281 189.457031 Z M 104.613281 128 " clip-rule="nonzero"/></clipPath></defs><g fill="#00bf63" fill-opacity="1"><g transform="translate(96.424845, 231.009775)"><g><path d="M 24.875 -7.65625 C 24.425781 -7.28125 23.847656 -6.976562 23.140625 -6.75 C 22.441406 -6.53125 21.628906 -6.421875 20.703125 -6.421875 C 19.472656 -6.421875 18.453125 -6.570312 17.640625 -6.875 C 16.835938 -7.1875 16.316406 -7.722656 16.078125 -8.484375 C 15.117188 -11.492188 14.332031 -13.929688 13.71875 -15.796875 C 13.101562 -17.671875 12.625 -19.304688 12.28125 -20.703125 L 12.03125 -20.703125 C 11.925781 -18.679688 11.847656 -16.835938 11.796875 -15.171875 C 11.742188 -13.515625 11.707031 -11.898438 11.6875 -10.328125 C 11.675781 -8.753906 11.644531 -7.160156 11.59375 -5.546875 C 11.539062 -3.941406 11.460938 -2.160156 11.359375 -0.203125 C 10.910156 -0.0351562 10.328125 0.101562 9.609375 0.21875 C 8.890625 0.34375 8.171875 0.40625 7.453125 0.40625 C 5.941406 0.40625 4.765625 0.164062 3.921875 -0.3125 C 3.085938 -0.789062 2.671875 -1.660156 2.671875 -2.921875 L 4.15625 -29.140625 C 4.4375 -29.585938 5.035156 -30.066406 5.953125 -30.578125 C 6.878906 -31.085938 8.179688 -31.34375 9.859375 -31.34375 C 11.679688 -31.34375 13.101562 -31.0625 14.125 -30.5 C 15.15625 -29.9375 15.910156 -29.019531 16.390625 -27.75 C 16.703125 -26.925781 17.035156 -25.984375 17.390625 -24.921875 C 17.753906 -23.859375 18.113281 -22.757812 18.46875 -21.625 C 18.832031 -20.5 19.1875 -19.378906 19.53125 -18.265625 C 19.875 -17.148438 20.179688 -16.148438 20.453125 -15.265625 L 20.703125 -15.265625 C 21.523438 -18.140625 22.347656 -20.921875 23.171875 -23.609375 C 23.992188 -26.296875 24.75 -28.550781 25.4375 -30.375 C 25.945312 -30.644531 26.601562 -30.875 27.40625 -31.0625 C 28.21875 -31.25 29.117188 -31.34375 30.109375 -31.34375 C 31.796875 -31.34375 33.164062 -31.09375 34.21875 -30.59375 C 35.28125 -30.101562 35.898438 -29.394531 36.078125 -28.46875 C 36.210938 -27.78125 36.359375 -26.722656 36.515625 -25.296875 C 36.671875 -23.878906 36.832031 -22.28125 37 -20.5 C 37.175781 -18.71875 37.347656 -16.832031 37.515625 -14.84375 C 37.679688 -12.863281 37.84375 -10.957031 38 -9.125 C 38.15625 -7.289062 38.285156 -5.609375 38.390625 -4.078125 C 38.492188 -2.554688 38.5625 -1.382812 38.59375 -0.5625 C 38.007812 -0.21875 37.398438 0.0234375 36.765625 0.171875 C 36.128906 0.328125 35.316406 0.40625 34.328125 0.40625 C 33.023438 0.40625 31.925781 0.1875 31.03125 -0.25 C 30.144531 -0.695312 29.664062 -1.570312 29.59375 -2.875 C 29.394531 -6.613281 29.269531 -9.972656 29.21875 -12.953125 C 29.164062 -15.929688 29.085938 -18.429688 28.984375 -20.453125 L 28.734375 -20.453125 C 28.390625 -19.117188 27.890625 -17.441406 27.234375 -15.421875 C 26.585938 -13.398438 25.800781 -10.8125 24.875 -7.65625 Z M 24.875 -7.65625 "/></g></g></g><g fill="#00bf63" fill-opacity="1"><g transform="translate(137.386157, 231.009775)"><g><path d="M 13.359375 -5.546875 C 13.941406 -5.546875 14.582031 -5.601562 15.28125 -5.71875 C 15.988281 -5.84375 16.515625 -6.007812 16.859375 -6.21875 L 16.859375 -10.328125 L 13.15625 -10.015625 C 12.195312 -9.953125 11.40625 -9.75 10.78125 -9.40625 C 10.164062 -9.0625 9.859375 -8.546875 9.859375 -7.859375 C 9.859375 -7.171875 10.125 -6.613281 10.65625 -6.1875 C 11.1875 -5.757812 12.085938 -5.546875 13.359375 -5.546875 Z M 12.953125 -25.75 C 14.796875 -25.75 16.476562 -25.554688 18 -25.171875 C 19.53125 -24.796875 20.832031 -24.222656 21.90625 -23.453125 C 22.988281 -22.679688 23.820312 -21.703125 24.40625 -20.515625 C 24.988281 -19.335938 25.28125 -17.945312 25.28125 -16.34375 L 25.28125 -4.828125 C 25.28125 -3.941406 25.03125 -3.210938 24.53125 -2.640625 C 24.039062 -2.078125 23.453125 -1.59375 22.765625 -1.1875 C 20.535156 0.15625 17.398438 0.828125 13.359375 0.828125 C 11.546875 0.828125 9.910156 0.65625 8.453125 0.3125 C 6.992188 -0.03125 5.742188 -0.546875 4.703125 -1.234375 C 3.660156 -1.921875 2.851562 -2.796875 2.28125 -3.859375 C 1.71875 -4.921875 1.4375 -6.148438 1.4375 -7.546875 C 1.4375 -9.910156 2.140625 -11.726562 3.546875 -13 C 4.953125 -14.269531 7.128906 -15.054688 10.078125 -15.359375 L 16.8125 -16.078125 L 16.8125 -16.4375 C 16.8125 -17.4375 16.375 -18.148438 15.5 -18.578125 C 14.625 -19.003906 13.363281 -19.21875 11.71875 -19.21875 C 10.414062 -19.21875 9.144531 -19.078125 7.90625 -18.796875 C 6.675781 -18.523438 5.566406 -18.1875 4.578125 -17.78125 C 4.128906 -18.09375 3.75 -18.5625 3.4375 -19.1875 C 3.132812 -19.820312 2.984375 -20.484375 2.984375 -21.171875 C 2.984375 -22.066406 3.195312 -22.78125 3.625 -23.3125 C 4.050781 -23.84375 4.710938 -24.296875 5.609375 -24.671875 C 6.597656 -25.046875 7.769531 -25.316406 9.125 -25.484375 C 10.476562 -25.660156 11.753906 -25.75 12.953125 -25.75 Z M 12.953125 -25.75 "/></g></g></g><g fill="#00bf63" fill-opacity="1"><g transform="translate(165.344698, 231.009775)"><g><path d="M 16.90625 -0.765625 C 16.425781 -0.359375 15.773438 -0.03125 14.953125 0.21875 C 14.128906 0.476562 13.15625 0.609375 12.03125 0.609375 C 10.625 0.609375 9.40625 0.410156 8.375 0.015625 C 7.34375 -0.367188 6.660156 -0.921875 6.328125 -1.640625 C 5.941406 -2.460938 5.5 -3.765625 5 -5.546875 C 4.507812 -7.328125 4.023438 -9.28125 3.546875 -11.40625 C 3.066406 -13.53125 2.613281 -15.6875 2.1875 -17.875 C 1.757812 -20.070312 1.425781 -22.007812 1.1875 -23.6875 C 1.664062 -24.164062 2.304688 -24.582031 3.109375 -24.9375 C 3.910156 -25.300781 4.789062 -25.484375 5.75 -25.484375 C 6.945312 -25.484375 7.929688 -25.21875 8.703125 -24.6875 C 9.472656 -24.15625 9.945312 -23.238281 10.125 -21.9375 C 10.46875 -19.332031 10.757812 -17.179688 11 -15.484375 C 11.238281 -13.796875 11.429688 -12.410156 11.578125 -11.328125 C 11.734375 -10.253906 11.851562 -9.429688 11.9375 -8.859375 C 12.03125 -8.296875 12.109375 -7.84375 12.171875 -7.5 L 12.390625 -7.5 C 12.492188 -8.050781 12.671875 -8.847656 12.921875 -9.890625 C 13.179688 -10.929688 13.484375 -12.117188 13.828125 -13.453125 C 14.171875 -14.796875 14.53125 -16.242188 14.90625 -17.796875 C 15.28125 -19.359375 15.65625 -20.910156 16.03125 -22.453125 C 16.71875 -22.828125 17.394531 -23.117188 18.0625 -23.328125 C 18.726562 -23.535156 19.5625 -23.640625 20.5625 -23.640625 C 21.757812 -23.640625 22.785156 -23.453125 23.640625 -23.078125 C 24.492188 -22.703125 25.039062 -22.117188 25.28125 -21.328125 C 25.695312 -19.816406 26.09375 -18.347656 26.46875 -16.921875 C 26.84375 -15.503906 27.179688 -14.1875 27.484375 -12.96875 C 27.796875 -11.757812 28.070312 -10.679688 28.3125 -9.734375 C 28.550781 -8.796875 28.722656 -8.050781 28.828125 -7.5 L 29.09375 -7.5 C 29.46875 -10.132812 29.832031 -12.875 30.1875 -15.71875 C 30.550781 -18.5625 30.882812 -21.457031 31.1875 -24.40625 C 31.8125 -24.78125 32.460938 -25.050781 33.140625 -25.21875 C 33.828125 -25.394531 34.515625 -25.484375 35.203125 -25.484375 C 36.398438 -25.484375 37.390625 -25.226562 38.171875 -24.71875 C 38.960938 -24.207031 39.359375 -23.316406 39.359375 -22.046875 C 39.359375 -21.492188 39.269531 -20.671875 39.09375 -19.578125 C 38.925781 -18.484375 38.707031 -17.25 38.4375 -15.875 C 38.164062 -14.507812 37.847656 -13.070312 37.484375 -11.5625 C 37.128906 -10.050781 36.769531 -8.59375 36.40625 -7.1875 C 36.050781 -5.789062 35.707031 -4.523438 35.375 -3.390625 C 35.050781 -2.265625 34.769531 -1.390625 34.53125 -0.765625 C 34.050781 -0.359375 33.3125 -0.03125 32.3125 0.21875 C 31.320312 0.476562 30.265625 0.609375 29.140625 0.609375 C 26.265625 0.609375 24.566406 -0.109375 24.046875 -1.546875 C 23.847656 -2.160156 23.59375 -2.9375 23.28125 -3.875 C 22.96875 -4.820312 22.640625 -5.859375 22.296875 -6.984375 C 21.960938 -8.117188 21.640625 -9.289062 21.328125 -10.5 C 21.015625 -11.71875 20.757812 -12.894531 20.5625 -14.03125 C 20.320312 -12.832031 20.03125 -11.585938 19.6875 -10.296875 C 19.34375 -9.015625 18.988281 -7.765625 18.625 -6.546875 C 18.269531 -5.335938 17.9375 -4.226562 17.625 -3.21875 C 17.320312 -2.207031 17.082031 -1.390625 16.90625 -0.765625 Z M 16.90625 -0.765625 "/></g></g></g><g fill="#00bf63" fill-opacity="1"><g transform="translate(205.997639, 231.009775)"><g><path d="M 13.359375 -5.546875 C 13.941406 -5.546875 14.582031 -5.601562 15.28125 -5.71875 C 15.988281 -5.84375 16.515625 -6.007812 16.859375 -6.21875 L 16.859375 -10.328125 L 13.15625 -10.015625 C 12.195312 -9.953125 11.40625 -9.75 10.78125 -9.40625 C 10.164062 -9.0625 9.859375 -8.546875 9.859375 -7.859375 C 9.859375 -7.171875 10.125 -6.613281 10.65625 -6.1875 C 11.1875 -5.757812 12.085938 -5.546875 13.359375 -5.546875 Z M 12.953125 -25.75 C 14.796875 -25.75 16.476562 -25.554688 18 -25.171875 C 19.53125 -24.796875 20.832031 -24.222656 21.90625 -23.453125 C 22.988281 -22.679688 23.820312 -21.703125 24.40625 -20.515625 C 24.988281 -19.335938 25.28125 -17.945312 25.28125 -16.34375 L 25.28125 -4.828125 C 25.28125 -3.941406 25.03125 -3.210938 24.53125 -2.640625 C 24.039062 -2.078125 23.453125 -1.59375 22.765625 -1.1875 C 20.535156 0.15625 17.398438 0.828125 13.359375 0.828125 C 11.546875 0.828125 9.910156 0.65625 8.453125 0.3125 C 6.992188 -0.03125 5.742188 -0.546875 4.703125 -1.234375 C 3.660156 -1.921875 2.851562 -2.796875 2.28125 -3.859375 C 1.71875 -4.921875 1.4375 -6.148438 1.4375 -7.546875 C 1.4375 -9.910156 2.140625 -11.726562 3.546875 -13 C 4.953125 -14.269531 7.128906 -15.054688 10.078125 -15.359375 L 16.8125 -16.078125 L 16.8125 -16.4375 C 16.8125 -17.4375 16.375 -18.148438 15.5 -18.578125 C 14.625 -19.003906 13.363281 -19.21875 11.71875 -19.21875 C 10.414062 -19.21875 9.144531 -19.078125 7.90625 -18.796875 C 6.675781 -18.523438 5.566406 -18.1875 4.578125 -17.78125 C 4.128906 -18.09375 3.75 -18.5625 3.4375 -19.1875 C 3.132812 -19.820312 2.984375 -20.484375 2.984375 -21.171875 C 2.984375 -22.066406 3.195312 -22.78125 3.625 -23.3125 C 4.050781 -23.84375 4.710938 -24.296875 5.609375 -24.671875 C 6.597656 -25.046875 7.769531 -25.316406 9.125 -25.484375 C 10.476562 -25.660156 11.753906 -25.75 12.953125 -25.75 Z M 12.953125 -25.75 "/></g></g></g><g fill="#00bf63" fill-opacity="1"><g transform="translate(233.95618, 231.009775)"><g><path d="M 1.59375 -12.484375 C 1.59375 -14.742188 1.9375 -16.703125 2.625 -18.359375 C 3.3125 -20.023438 4.257812 -21.40625 5.46875 -22.5 C 6.6875 -23.601562 8.109375 -24.421875 9.734375 -24.953125 C 11.359375 -25.484375 13.113281 -25.75 15 -25.75 C 15.6875 -25.75 16.351562 -25.6875 17 -25.5625 C 17.65625 -25.445312 18.191406 -25.300781 18.609375 -25.125 L 18.609375 -33.453125 C 18.953125 -33.554688 19.5 -33.664062 20.25 -33.78125 C 21 -33.90625 21.769531 -33.96875 22.5625 -33.96875 C 23.3125 -33.96875 23.984375 -33.914062 24.578125 -33.8125 C 25.179688 -33.707031 25.6875 -33.5 26.09375 -33.1875 C 26.507812 -32.882812 26.820312 -32.46875 27.03125 -31.9375 C 27.238281 -31.40625 27.34375 -30.710938 27.34375 -29.859375 L 27.34375 -5.5 C 27.34375 -3.882812 26.585938 -2.597656 25.078125 -1.640625 C 24.085938 -0.992188 22.800781 -0.421875 21.21875 0.078125 C 19.644531 0.578125 17.832031 0.828125 15.78125 0.828125 C 13.550781 0.828125 11.550781 0.519531 9.78125 -0.09375 C 8.019531 -0.71875 6.53125 -1.609375 5.3125 -2.765625 C 4.101562 -3.929688 3.179688 -5.328125 2.546875 -6.953125 C 1.910156 -8.585938 1.59375 -10.429688 1.59375 -12.484375 Z M 16.1875 -18.90625 C 14.332031 -18.90625 12.910156 -18.375 11.921875 -17.3125 C 10.929688 -16.25 10.4375 -14.640625 10.4375 -12.484375 C 10.4375 -10.359375 10.894531 -8.753906 11.8125 -7.671875 C 12.738281 -6.597656 14.078125 -6.0625 15.828125 -6.0625 C 16.441406 -6.0625 17 -6.15625 17.5 -6.34375 C 18 -6.53125 18.382812 -6.742188 18.65625 -6.984375 L 18.65625 -18.296875 C 17.96875 -18.703125 17.144531 -18.90625 16.1875 -18.90625 Z M 16.1875 -18.90625 "/></g></g></g><g fill="#00bf63" fill-opacity="1"><g transform="translate(264.073281, 231.009775)"><g><path d="M 2.46875 -31.90625 C 2.46875 -33.207031 2.90625 -34.300781 3.78125 -35.1875 C 4.65625 -36.082031 5.8125 -36.53125 7.25 -36.53125 C 8.6875 -36.53125 9.84375 -36.082031 10.71875 -35.1875 C 11.59375 -34.300781 12.03125 -33.207031 12.03125 -31.90625 C 12.03125 -30.601562 11.59375 -29.503906 10.71875 -28.609375 C 9.84375 -27.722656 8.6875 -27.28125 7.25 -27.28125 C 5.8125 -27.28125 4.65625 -27.722656 3.78125 -28.609375 C 2.90625 -29.503906 2.46875 -30.601562 2.46875 -31.90625 Z M 11.609375 -0.046875 C 11.234375 0.015625 10.675781 0.101562 9.9375 0.21875 C 9.207031 0.34375 8.460938 0.40625 7.703125 0.40625 C 6.953125 0.40625 6.273438 0.351562 5.671875 0.25 C 5.078125 0.15625 4.570312 -0.046875 4.15625 -0.359375 C 3.75 -0.671875 3.429688 -1.09375 3.203125 -1.625 C 2.984375 -2.15625 2.875 -2.847656 2.875 -3.703125 L 2.875 -24.609375 C 3.25 -24.679688 3.804688 -24.773438 4.546875 -24.890625 C 5.285156 -25.015625 6.03125 -25.078125 6.78125 -25.078125 C 7.539062 -25.078125 8.21875 -25.023438 8.8125 -24.921875 C 9.414062 -24.816406 9.921875 -24.609375 10.328125 -24.296875 C 10.742188 -23.992188 11.0625 -23.578125 11.28125 -23.046875 C 11.5 -22.515625 11.609375 -21.820312 11.609375 -20.96875 Z M 11.609375 -0.046875 "/></g></g></g><g clip-path="url(#0b17d78f2a)"><path fill="#00bf63" d="M 251.101562 161.546875 C 228.632812 155.46875 211.816406 160.597656 200.777344 167.109375 C 215.871094 151.757812 238.898438 146.714844 246.273438 145.460938 Z M 224.539062 128.042969 L 230.875 143.175781 C 218.933594 146.886719 203.320312 154.085938 192.757812 167.367188 C 199.441406 144.125 217.726562 131.878906 224.539062 128.042969 Z M 150.367188 128.042969 C 157.179688 131.878906 175.464844 144.082031 182.148438 167.410156 C 171.582031 154.128906 155.972656 146.929688 144.027344 143.21875 Z M 128.632812 145.460938 C 136.007812 146.714844 159.035156 151.757812 174.128906 167.109375 C 163.089844 160.597656 146.269531 155.46875 123.804688 161.546875 Z M 197.15625 189.621094 L 177.75 189.621094 C 173.480469 184.101562 155.023438 166.375 104.613281 187.378906 L 108.96875 173.277344 C 159.25 148.867188 184.089844 182.375 185.125 183.839844 C 185.167969 183.882812 185.210938 183.882812 185.253906 183.925781 C 185.296875 184.015625 185.339844 184.101562 185.425781 184.144531 C 185.46875 184.1875 185.46875 184.1875 185.46875 184.230469 C 185.554688 184.316406 185.640625 184.359375 185.769531 184.402344 C 185.855469 184.445312 185.945312 184.53125 186.03125 184.574219 C 186.117188 184.617188 186.203125 184.703125 186.332031 184.746094 C 186.375 184.746094 186.417969 184.789062 186.417969 184.789062 C 186.589844 184.875 186.804688 184.875 187.023438 184.917969 C 187.152344 184.917969 187.238281 185.003906 187.367188 185.003906 C 187.410156 185.003906 187.453125 185.003906 187.496094 185.003906 C 187.539062 185.003906 187.582031 185.003906 187.625 185.003906 C 187.753906 185.003906 187.839844 184.960938 187.96875 184.917969 C 188.1875 184.875 188.359375 184.875 188.574219 184.789062 C 188.617188 184.789062 188.660156 184.746094 188.660156 184.746094 C 188.789062 184.703125 188.875 184.617188 188.960938 184.574219 C 189.046875 184.53125 189.132812 184.488281 189.222656 184.402344 C 189.308594 184.316406 189.4375 184.273438 189.523438 184.230469 C 189.566406 184.1875 189.566406 184.1875 189.566406 184.144531 C 189.652344 184.058594 189.695312 184.015625 189.738281 183.925781 C 189.78125 183.882812 189.824219 183.882812 189.867188 183.839844 C 190.902344 182.375 215.742188 148.867188 266.023438 173.277344 L 270.375 187.378906 C 219.925781 166.375 201.425781 184.144531 197.15625 189.621094 Z M 197.15625 189.621094 " fill-opacity="1" fill-rule="nonzero"/></g></svg>