<svg xmlns="http://www.w3.org/2000/svg" xmlns:xlink="http://www.w3.org/1999/xlink" width="500" zoomAndPan="magnify" viewBox="0 0 375 374.999991" height="500" preserveAspectRatio="xMidYMid meet" version="1.0"><defs><g/><clipPath id="139c1a0b98"><path d="M 33.417969 76.8125 L 341.667969 76.8125 L 341.667969 191.5625 L 33.417969 191.5625 Z M 33.417969 76.8125 " clip-rule="nonzero"/></clipPath></defs><g fill="#00bf63" fill-opacity="1"><g transform="translate(18.194357, 268.383209)"><g><path d="M 46.25 -14.234375 C 45.414062 -13.535156 44.34375 -12.976562 43.03125 -12.5625 C 41.726562 -12.144531 40.21875 -11.9375 38.5 -11.9375 C 36.207031 -11.9375 34.3125 -12.222656 32.8125 -12.796875 C 31.320312 -13.367188 30.351562 -14.359375 29.90625 -15.765625 C 28.125 -21.367188 26.660156 -25.90625 25.515625 -29.375 C 24.367188 -32.851562 23.472656 -35.894531 22.828125 -38.5 L 22.359375 -38.5 C 22.171875 -34.75 22.023438 -31.328125 21.921875 -28.234375 C 21.828125 -25.140625 21.765625 -22.128906 21.734375 -19.203125 C 21.703125 -16.273438 21.640625 -13.3125 21.546875 -10.3125 C 21.453125 -7.320312 21.304688 -4.007812 21.109375 -0.375 C 20.285156 -0.0625 19.203125 0.203125 17.859375 0.421875 C 16.523438 0.648438 15.191406 0.765625 13.859375 0.765625 C 11.054688 0.765625 8.875 0.320312 7.3125 -0.5625 C 5.75 -1.457031 4.96875 -3.085938 4.96875 -5.453125 L 7.734375 -54.171875 C 8.242188 -55.003906 9.359375 -55.894531 11.078125 -56.84375 C 12.796875 -57.800781 15.21875 -58.28125 18.34375 -58.28125 C 21.71875 -58.28125 24.359375 -57.753906 26.265625 -56.703125 C 28.179688 -55.648438 29.585938 -53.945312 30.484375 -51.59375 C 31.054688 -50.0625 31.675781 -48.304688 32.34375 -46.328125 C 33.007812 -44.359375 33.675781 -42.320312 34.34375 -40.21875 C 35.019531 -38.125 35.675781 -36.039062 36.3125 -33.96875 C 36.945312 -31.894531 37.519531 -30.03125 38.03125 -28.375 L 38.5 -28.375 C 40.03125 -33.726562 41.5625 -38.90625 43.09375 -43.90625 C 44.625 -48.90625 46.023438 -53.09375 47.296875 -56.46875 C 48.253906 -56.976562 49.476562 -57.40625 50.96875 -57.75 C 52.46875 -58.101562 54.140625 -58.28125 55.984375 -58.28125 C 59.109375 -58.28125 61.65625 -57.816406 63.625 -56.890625 C 65.601562 -55.972656 66.753906 -54.65625 67.078125 -52.9375 C 67.328125 -51.65625 67.59375 -49.691406 67.875 -47.046875 C 68.164062 -44.410156 68.46875 -41.4375 68.78125 -38.125 C 69.101562 -34.8125 69.425781 -31.304688 69.75 -27.609375 C 70.070312 -23.921875 70.375 -20.367188 70.65625 -16.953125 C 70.945312 -13.546875 71.1875 -10.425781 71.375 -7.59375 C 71.5625 -4.757812 71.6875 -2.578125 71.75 -1.046875 C 70.664062 -0.410156 69.535156 0.046875 68.359375 0.328125 C 67.179688 0.617188 65.671875 0.765625 63.828125 0.765625 C 61.398438 0.765625 59.359375 0.351562 57.703125 -0.46875 C 56.046875 -1.300781 55.15625 -2.925781 55.03125 -5.34375 C 54.65625 -12.289062 54.414062 -18.535156 54.3125 -24.078125 C 54.21875 -29.617188 54.078125 -34.269531 53.890625 -38.03125 L 53.40625 -38.03125 C 52.769531 -35.539062 51.847656 -32.414062 50.640625 -28.65625 C 49.429688 -24.90625 47.96875 -20.097656 46.25 -14.234375 Z M 46.25 -14.234375 "/></g></g></g><g fill="#00bf63" fill-opacity="1"><g transform="translate(94.340051, 268.383209)"><g><path d="M 24.84375 -10.3125 C 25.925781 -10.3125 27.117188 -10.421875 28.421875 -10.640625 C 29.734375 -10.867188 30.707031 -11.175781 31.34375 -11.5625 L 31.34375 -19.203125 L 24.453125 -18.625 C 22.671875 -18.5 21.207031 -18.117188 20.0625 -17.484375 C 18.914062 -16.847656 18.34375 -15.894531 18.34375 -14.625 C 18.34375 -13.34375 18.835938 -12.300781 19.828125 -11.5 C 20.816406 -10.707031 22.488281 -10.3125 24.84375 -10.3125 Z M 24.078125 -47.875 C 27.515625 -47.875 30.648438 -47.519531 33.484375 -46.8125 C 36.316406 -46.113281 38.738281 -45.046875 40.75 -43.609375 C 42.757812 -42.179688 44.304688 -40.367188 45.390625 -38.171875 C 46.472656 -35.972656 47.015625 -33.378906 47.015625 -30.390625 L 47.015625 -8.984375 C 47.015625 -7.328125 46.550781 -5.972656 45.625 -4.921875 C 44.695312 -3.867188 43.597656 -2.960938 42.328125 -2.203125 C 38.179688 0.285156 32.351562 1.53125 24.84375 1.53125 C 21.46875 1.53125 18.425781 1.210938 15.71875 0.578125 C 13.007812 -0.0546875 10.679688 -1.007812 8.734375 -2.28125 C 6.796875 -3.5625 5.300781 -5.1875 4.25 -7.15625 C 3.195312 -9.132812 2.671875 -11.429688 2.671875 -14.046875 C 2.671875 -18.441406 3.976562 -21.816406 6.59375 -24.171875 C 9.207031 -26.523438 13.253906 -27.988281 18.734375 -28.5625 L 31.25 -29.90625 L 31.25 -30.578125 C 31.25 -32.421875 30.4375 -33.738281 28.8125 -34.53125 C 27.1875 -35.332031 24.84375 -35.734375 21.78125 -35.734375 C 19.363281 -35.734375 17.007812 -35.476562 14.71875 -34.96875 C 12.425781 -34.457031 10.351562 -33.820312 8.5 -33.0625 C 7.675781 -33.632812 6.976562 -34.507812 6.40625 -35.6875 C 5.832031 -36.863281 5.546875 -38.085938 5.546875 -39.359375 C 5.546875 -41.015625 5.941406 -42.335938 6.734375 -43.328125 C 7.535156 -44.316406 8.765625 -45.160156 10.421875 -45.859375 C 12.265625 -46.554688 14.441406 -47.066406 16.953125 -47.390625 C 19.472656 -47.710938 21.847656 -47.875 24.078125 -47.875 Z M 24.078125 -47.875 "/></g></g></g><g fill="#00bf63" fill-opacity="1"><g transform="translate(146.314032, 268.383209)"><g><path d="M 31.4375 -1.4375 C 30.539062 -0.664062 29.328125 -0.046875 27.796875 0.421875 C 26.273438 0.898438 24.460938 1.140625 22.359375 1.140625 C 19.742188 1.140625 17.476562 0.773438 15.5625 0.046875 C 13.65625 -0.679688 12.382812 -1.71875 11.75 -3.0625 C 11.050781 -4.582031 10.238281 -7 9.3125 -10.3125 C 8.394531 -13.625 7.488281 -17.253906 6.59375 -21.203125 C 5.695312 -25.160156 4.847656 -29.175781 4.046875 -33.25 C 3.253906 -37.320312 2.640625 -40.921875 2.203125 -44.046875 C 3.085938 -44.941406 4.28125 -45.722656 5.78125 -46.390625 C 7.28125 -47.054688 8.921875 -47.390625 10.703125 -47.390625 C 12.929688 -47.390625 14.757812 -46.894531 16.1875 -45.90625 C 17.625 -44.914062 18.503906 -43.210938 18.828125 -40.796875 C 19.460938 -35.953125 20 -31.953125 20.4375 -28.796875 C 20.882812 -25.648438 21.25 -23.070312 21.53125 -21.0625 C 21.820312 -19.0625 22.046875 -17.535156 22.203125 -16.484375 C 22.367188 -15.429688 22.515625 -14.585938 22.640625 -13.953125 L 23.03125 -13.953125 C 23.21875 -14.972656 23.550781 -16.453125 24.03125 -18.390625 C 24.507812 -20.335938 25.066406 -22.550781 25.703125 -25.03125 C 26.335938 -27.519531 27.003906 -30.210938 27.703125 -33.109375 C 28.410156 -36.003906 29.113281 -38.882812 29.8125 -41.75 C 31.082031 -42.457031 32.335938 -43 33.578125 -43.375 C 34.828125 -43.757812 36.375 -43.953125 38.21875 -43.953125 C 40.445312 -43.953125 42.359375 -43.597656 43.953125 -42.890625 C 45.546875 -42.191406 46.566406 -41.113281 47.015625 -39.65625 C 47.773438 -36.851562 48.503906 -34.128906 49.203125 -31.484375 C 49.898438 -28.835938 50.535156 -26.382812 51.109375 -24.125 C 51.691406 -21.863281 52.203125 -19.859375 52.640625 -18.109375 C 53.085938 -16.359375 53.410156 -14.972656 53.609375 -13.953125 L 54.078125 -13.953125 C 54.773438 -18.859375 55.457031 -23.953125 56.125 -29.234375 C 56.800781 -34.523438 57.425781 -39.910156 58 -45.390625 C 59.144531 -46.085938 60.351562 -46.59375 61.625 -46.90625 C 62.894531 -47.226562 64.171875 -47.390625 65.453125 -47.390625 C 67.679688 -47.390625 69.523438 -46.910156 70.984375 -45.953125 C 72.453125 -45.003906 73.1875 -43.347656 73.1875 -40.984375 C 73.1875 -39.960938 73.023438 -38.429688 72.703125 -36.390625 C 72.390625 -34.359375 71.976562 -32.066406 71.46875 -29.515625 C 70.957031 -26.972656 70.367188 -24.300781 69.703125 -21.5 C 69.035156 -18.695312 68.363281 -15.988281 67.6875 -13.375 C 67.019531 -10.757812 66.382812 -8.398438 65.78125 -6.296875 C 65.175781 -4.203125 64.648438 -2.582031 64.203125 -1.4375 C 63.316406 -0.664062 61.945312 -0.046875 60.09375 0.421875 C 58.25 0.898438 56.273438 1.140625 54.171875 1.140625 C 48.828125 1.140625 45.675781 -0.191406 44.71875 -2.859375 C 44.332031 -4.015625 43.851562 -5.46875 43.28125 -7.21875 C 42.707031 -8.96875 42.101562 -10.890625 41.46875 -12.984375 C 40.832031 -15.085938 40.226562 -17.269531 39.65625 -19.53125 C 39.082031 -21.800781 38.601562 -23.984375 38.21875 -26.078125 C 37.769531 -23.847656 37.226562 -21.539062 36.59375 -19.15625 C 35.957031 -16.769531 35.300781 -14.445312 34.625 -12.1875 C 33.957031 -9.925781 33.335938 -7.851562 32.765625 -5.96875 C 32.191406 -4.09375 31.75 -2.582031 31.4375 -1.4375 Z M 31.4375 -1.4375 "/></g></g></g><g fill="#00bf63" fill-opacity="1"><g transform="translate(221.886474, 268.383209)"><g><path d="M 24.84375 -10.3125 C 25.925781 -10.3125 27.117188 -10.421875 28.421875 -10.640625 C 29.734375 -10.867188 30.707031 -11.175781 31.34375 -11.5625 L 31.34375 -19.203125 L 24.453125 -18.625 C 22.671875 -18.5 21.207031 -18.117188 20.0625 -17.484375 C 18.914062 -16.847656 18.34375 -15.894531 18.34375 -14.625 C 18.34375 -13.34375 18.835938 -12.300781 19.828125 -11.5 C 20.816406 -10.707031 22.488281 -10.3125 24.84375 -10.3125 Z M 24.078125 -47.875 C 27.515625 -47.875 30.648438 -47.519531 33.484375 -46.8125 C 36.316406 -46.113281 38.738281 -45.046875 40.75 -43.609375 C 42.757812 -42.179688 44.304688 -40.367188 45.390625 -38.171875 C 46.472656 -35.972656 47.015625 -33.378906 47.015625 -30.390625 L 47.015625 -8.984375 C 47.015625 -7.328125 46.550781 -5.972656 45.625 -4.921875 C 44.695312 -3.867188 43.597656 -2.960938 42.328125 -2.203125 C 38.179688 0.285156 32.351562 1.53125 24.84375 1.53125 C 21.46875 1.53125 18.425781 1.210938 15.71875 0.578125 C 13.007812 -0.0546875 10.679688 -1.007812 8.734375 -2.28125 C 6.796875 -3.5625 5.300781 -5.1875 4.25 -7.15625 C 3.195312 -9.132812 2.671875 -11.429688 2.671875 -14.046875 C 2.671875 -18.441406 3.976562 -21.816406 6.59375 -24.171875 C 9.207031 -26.523438 13.253906 -27.988281 18.734375 -28.5625 L 31.25 -29.90625 L 31.25 -30.578125 C 31.25 -32.421875 30.4375 -33.738281 28.8125 -34.53125 C 27.1875 -35.332031 24.84375 -35.734375 21.78125 -35.734375 C 19.363281 -35.734375 17.007812 -35.476562 14.71875 -34.96875 C 12.425781 -34.457031 10.351562 -33.820312 8.5 -33.0625 C 7.675781 -33.632812 6.976562 -34.507812 6.40625 -35.6875 C 5.832031 -36.863281 5.546875 -38.085938 5.546875 -39.359375 C 5.546875 -41.015625 5.941406 -42.335938 6.734375 -43.328125 C 7.535156 -44.316406 8.765625 -45.160156 10.421875 -45.859375 C 12.265625 -46.554688 14.441406 -47.066406 16.953125 -47.390625 C 19.472656 -47.710938 21.847656 -47.875 24.078125 -47.875 Z M 24.078125 -47.875 "/></g></g></g><g fill="#00bf63" fill-opacity="1"><g transform="translate(273.860455, 268.383209)"><g><path d="M 2.96875 -23.21875 C 2.96875 -27.425781 3.601562 -31.070312 4.875 -34.15625 C 6.144531 -37.25 7.910156 -39.8125 10.171875 -41.84375 C 12.429688 -43.882812 15.070312 -45.398438 18.09375 -46.390625 C 21.125 -47.378906 24.394531 -47.875 27.90625 -47.875 C 29.175781 -47.875 30.414062 -47.757812 31.625 -47.53125 C 32.832031 -47.3125 33.820312 -47.039062 34.59375 -46.71875 L 34.59375 -62.203125 C 35.226562 -62.390625 36.242188 -62.59375 37.640625 -62.8125 C 39.046875 -63.039062 40.476562 -63.15625 41.9375 -63.15625 C 43.34375 -63.15625 44.601562 -63.054688 45.71875 -62.859375 C 46.832031 -62.671875 47.769531 -62.289062 48.53125 -61.71875 C 49.300781 -61.144531 49.875 -60.363281 50.25 -59.375 C 50.632812 -58.394531 50.828125 -57.109375 50.828125 -55.515625 L 50.828125 -10.21875 C 50.828125 -7.226562 49.425781 -4.84375 46.625 -3.0625 C 44.78125 -1.84375 42.390625 -0.773438 39.453125 0.140625 C 36.523438 1.066406 33.148438 1.53125 29.328125 1.53125 C 25.191406 1.53125 21.484375 0.957031 18.203125 -0.1875 C 14.921875 -1.332031 12.148438 -2.988281 9.890625 -5.15625 C 7.628906 -7.320312 5.910156 -9.914062 4.734375 -12.9375 C 3.554688 -15.96875 2.96875 -19.394531 2.96875 -23.21875 Z M 30.09375 -35.15625 C 26.65625 -35.15625 24.007812 -34.164062 22.15625 -32.1875 C 20.3125 -30.21875 19.390625 -27.226562 19.390625 -23.21875 C 19.390625 -19.269531 20.25 -16.289062 21.96875 -14.28125 C 23.695312 -12.28125 26.179688 -11.28125 29.421875 -11.28125 C 30.566406 -11.28125 31.601562 -11.453125 32.53125 -11.796875 C 33.457031 -12.148438 34.175781 -12.550781 34.6875 -13 L 34.6875 -34.015625 C 33.40625 -34.773438 31.875 -35.15625 30.09375 -35.15625 Z M 30.09375 -35.15625 "/></g></g></g><g fill="#00bf63" fill-opacity="1"><g transform="translate(329.847127, 268.383209)"><g><path d="M 4.59375 -59.328125 C 4.59375 -61.753906 5.398438 -63.796875 7.015625 -65.453125 C 8.640625 -67.109375 10.789062 -67.9375 13.46875 -67.9375 C 16.144531 -67.9375 18.296875 -67.109375 19.921875 -65.453125 C 21.546875 -63.796875 22.359375 -61.753906 22.359375 -59.328125 C 22.359375 -56.910156 21.546875 -54.875 19.921875 -53.21875 C 18.296875 -51.5625 16.144531 -50.734375 13.46875 -50.734375 C 10.789062 -50.734375 8.640625 -51.5625 7.015625 -53.21875 C 5.398438 -54.875 4.59375 -56.910156 4.59375 -59.328125 Z M 21.59375 -0.09375 C 20.894531 0.03125 19.859375 0.203125 18.484375 0.421875 C 17.117188 0.648438 15.734375 0.765625 14.328125 0.765625 C 12.929688 0.765625 11.675781 0.664062 10.5625 0.46875 C 9.445312 0.28125 8.503906 -0.0976562 7.734375 -0.671875 C 6.972656 -1.242188 6.382812 -2.019531 5.96875 -3 C 5.550781 -3.988281 5.34375 -5.28125 5.34375 -6.875 L 5.34375 -45.765625 C 6.050781 -45.890625 7.085938 -46.0625 8.453125 -46.28125 C 9.828125 -46.507812 11.210938 -46.625 12.609375 -46.625 C 14.015625 -46.625 15.273438 -46.523438 16.390625 -46.328125 C 17.503906 -46.140625 18.441406 -45.757812 19.203125 -45.1875 C 19.960938 -44.613281 20.550781 -43.832031 20.96875 -42.84375 C 21.382812 -41.863281 21.59375 -40.578125 21.59375 -38.984375 Z M 21.59375 -0.09375 "/></g></g></g><g clip-path="url(#139c1a0b98)"><path fill="#00bf63" d="M 305.742188 139.253906 C 263.976562 127.953125 232.710938 137.492188 212.1875 149.597656 C 240.246094 121.058594 283.054688 111.679688 296.761719 109.351562 Z M 256.359375 76.964844 L 268.144531 105.105469 C 245.9375 112 216.917969 125.386719 197.277344 150.078125 C 209.703125 106.867188 243.695312 84.101562 256.359375 76.964844 Z M 118.476562 76.964844 C 131.140625 84.101562 165.132812 106.789062 177.558594 150.15625 C 157.917969 125.464844 128.898438 112.078125 106.691406 105.183594 Z M 78.070312 109.351562 C 91.78125 111.679688 134.589844 121.058594 162.648438 149.597656 C 142.125 137.492188 110.859375 127.953125 69.09375 139.253906 Z M 205.453125 191.441406 L 169.378906 191.441406 C 161.445312 181.183594 127.132812 148.234375 33.417969 187.273438 L 41.515625 161.058594 C 134.988281 115.6875 181.164062 177.976562 183.089844 180.699219 C 183.167969 180.78125 183.25 180.78125 183.328125 180.859375 C 183.410156 181.019531 183.488281 181.183594 183.648438 181.261719 C 183.730469 181.34375 183.730469 181.34375 183.730469 181.421875 C 183.890625 181.582031 184.050781 181.664062 184.292969 181.742188 C 184.453125 181.824219 184.613281 181.984375 184.773438 182.0625 C 184.933594 182.144531 185.09375 182.304688 185.332031 182.382812 C 185.414062 182.382812 185.492188 182.464844 185.492188 182.464844 C 185.816406 182.625 186.214844 182.625 186.617188 182.703125 C 186.855469 182.703125 187.015625 182.863281 187.257812 182.863281 C 187.335938 182.863281 187.417969 182.863281 187.496094 182.863281 C 187.578125 182.863281 187.660156 182.863281 187.738281 182.863281 C 187.980469 182.863281 188.140625 182.785156 188.378906 182.703125 C 188.78125 182.625 189.101562 182.625 189.503906 182.464844 C 189.582031 182.464844 189.664062 182.382812 189.664062 182.382812 C 189.902344 182.304688 190.0625 182.144531 190.222656 182.0625 C 190.382812 181.984375 190.542969 181.902344 190.703125 181.742188 C 190.863281 181.582031 191.105469 181.503906 191.265625 181.421875 C 191.347656 181.34375 191.347656 181.34375 191.347656 181.261719 C 191.507812 181.101562 191.585938 181.019531 191.667969 180.859375 C 191.746094 180.78125 191.828125 180.78125 191.90625 180.699219 C 193.832031 177.976562 240.007812 115.6875 333.480469 161.058594 L 341.574219 187.273438 C 247.78125 148.234375 213.390625 181.261719 205.453125 191.441406 Z M 205.453125 191.441406 " fill-opacity="1" fill-rule="nonzero"/></g></svg>