<svg xmlns="http://www.w3.org/2000/svg" xmlns:xlink="http://www.w3.org/1999/xlink" width="500" zoomAndPan="magnify" viewBox="0 0 375 374.999991" height="500" preserveAspectRatio="xMidYMid meet" version="1.0"><defs><g/><clipPath id="d820b8e99a"><path d="M 87.636719 115.757812 L 287.136719 115.757812 L 287.136719 190.007812 L 87.636719 190.007812 Z M 87.636719 115.757812 " clip-rule="nonzero"/></clipPath></defs><g fill="#ffffff" fill-opacity="1"><g transform="translate(77.766822, 239.923366)"><g><path d="M 29.96875 -9.21875 C 29.4375 -8.769531 28.742188 -8.410156 27.890625 -8.140625 C 27.046875 -7.867188 26.066406 -7.734375 24.953125 -7.734375 C 23.460938 -7.734375 22.234375 -7.921875 21.265625 -8.296875 C 20.296875 -8.671875 19.664062 -9.3125 19.375 -10.21875 C 18.21875 -13.851562 17.269531 -16.796875 16.53125 -19.046875 C 15.789062 -21.296875 15.210938 -23.265625 14.796875 -24.953125 L 14.484375 -24.953125 C 14.359375 -22.515625 14.265625 -20.296875 14.203125 -18.296875 C 14.148438 -16.296875 14.113281 -14.34375 14.09375 -12.4375 C 14.070312 -10.539062 14.03125 -8.625 13.96875 -6.6875 C 13.90625 -4.75 13.8125 -2.601562 13.6875 -0.25 C 13.144531 -0.0390625 12.441406 0.132812 11.578125 0.28125 C 10.710938 0.425781 9.847656 0.5 8.984375 0.5 C 7.160156 0.5 5.742188 0.210938 4.734375 -0.359375 C 3.722656 -0.941406 3.21875 -2 3.21875 -3.53125 L 5.015625 -35.109375 C 5.347656 -35.648438 6.070312 -36.226562 7.1875 -36.84375 C 8.300781 -37.457031 9.867188 -37.765625 11.890625 -37.765625 C 14.078125 -37.765625 15.789062 -37.425781 17.03125 -36.75 C 18.269531 -36.070312 19.175781 -34.96875 19.75 -33.4375 C 20.125 -32.445312 20.523438 -31.3125 20.953125 -30.03125 C 21.390625 -28.75 21.820312 -27.425781 22.25 -26.0625 C 22.6875 -24.707031 23.113281 -23.359375 23.53125 -22.015625 C 23.945312 -20.671875 24.316406 -19.460938 24.640625 -18.390625 L 24.953125 -18.390625 C 25.941406 -21.859375 26.929688 -25.210938 27.921875 -28.453125 C 28.910156 -31.691406 29.820312 -34.40625 30.65625 -36.59375 C 31.269531 -36.925781 32.0625 -37.203125 33.03125 -37.421875 C 34 -37.648438 35.082031 -37.765625 36.28125 -37.765625 C 38.3125 -37.765625 39.960938 -37.46875 41.234375 -36.875 C 42.515625 -36.28125 43.257812 -35.425781 43.46875 -34.3125 C 43.632812 -33.476562 43.8125 -32.203125 44 -30.484375 C 44.1875 -28.773438 44.378906 -26.847656 44.578125 -24.703125 C 44.785156 -22.554688 44.992188 -20.285156 45.203125 -17.890625 C 45.410156 -15.492188 45.601562 -13.191406 45.78125 -10.984375 C 45.96875 -8.773438 46.125 -6.753906 46.25 -4.921875 C 46.375 -3.085938 46.457031 -1.675781 46.5 -0.6875 C 45.800781 -0.269531 45.066406 0.03125 44.296875 0.21875 C 43.535156 0.40625 42.554688 0.5 41.359375 0.5 C 39.796875 0.5 38.476562 0.234375 37.40625 -0.296875 C 36.332031 -0.835938 35.753906 -1.894531 35.671875 -3.46875 C 35.421875 -7.96875 35.265625 -12.007812 35.203125 -15.59375 C 35.140625 -19.1875 35.046875 -22.203125 34.921875 -24.640625 L 34.609375 -24.640625 C 34.203125 -23.035156 33.601562 -21.015625 32.8125 -18.578125 C 32.03125 -16.140625 31.082031 -13.019531 29.96875 -9.21875 Z M 29.96875 -9.21875 "/></g></g></g><g fill="#ffffff" fill-opacity="1"><g transform="translate(127.119635, 239.923366)"><g><path d="M 16.09375 -6.6875 C 16.800781 -6.6875 17.578125 -6.757812 18.421875 -6.90625 C 19.265625 -7.050781 19.894531 -7.25 20.3125 -7.5 L 20.3125 -12.453125 L 15.859375 -12.078125 C 14.703125 -11.992188 13.75 -11.742188 13 -11.328125 C 12.257812 -10.921875 11.890625 -10.300781 11.890625 -9.46875 C 11.890625 -8.644531 12.207031 -7.972656 12.84375 -7.453125 C 13.488281 -6.941406 14.570312 -6.6875 16.09375 -6.6875 Z M 15.609375 -31.015625 C 17.835938 -31.015625 19.867188 -30.785156 21.703125 -30.328125 C 23.535156 -29.878906 25.101562 -29.191406 26.40625 -28.265625 C 27.707031 -27.335938 28.707031 -26.160156 29.40625 -24.734375 C 30.113281 -23.304688 30.46875 -21.625 30.46875 -19.6875 L 30.46875 -5.828125 C 30.46875 -4.742188 30.164062 -3.863281 29.5625 -3.1875 C 28.96875 -2.507812 28.257812 -1.921875 27.4375 -1.421875 C 24.75 0.179688 20.96875 0.984375 16.09375 0.984375 C 13.90625 0.984375 11.929688 0.773438 10.171875 0.359375 C 8.421875 -0.046875 6.914062 -0.660156 5.65625 -1.484375 C 4.40625 -2.304688 3.4375 -3.359375 2.75 -4.640625 C 2.070312 -5.921875 1.734375 -7.410156 1.734375 -9.109375 C 1.734375 -11.953125 2.578125 -14.132812 4.265625 -15.65625 C 5.960938 -17.1875 8.585938 -18.140625 12.140625 -18.515625 L 20.25 -19.375 L 20.25 -19.8125 C 20.25 -21.007812 19.722656 -21.863281 18.671875 -22.375 C 17.617188 -22.894531 16.101562 -23.15625 14.125 -23.15625 C 12.550781 -23.15625 11.019531 -22.988281 9.53125 -22.65625 C 8.050781 -22.332031 6.710938 -21.921875 5.515625 -21.421875 C 4.972656 -21.796875 4.515625 -22.363281 4.140625 -23.125 C 3.773438 -23.882812 3.59375 -24.679688 3.59375 -25.515625 C 3.59375 -26.585938 3.847656 -27.441406 4.359375 -28.078125 C 4.878906 -28.722656 5.675781 -29.269531 6.75 -29.71875 C 7.945312 -30.175781 9.359375 -30.503906 10.984375 -30.703125 C 12.617188 -30.910156 14.160156 -31.015625 15.609375 -31.015625 Z M 15.609375 -31.015625 "/></g></g></g><g fill="#ffffff" fill-opacity="1"><g transform="translate(160.805876, 239.923366)"><g><path d="M 20.375 -0.921875 C 19.789062 -0.429688 19.003906 -0.03125 18.015625 0.28125 C 17.023438 0.59375 15.847656 0.75 14.484375 0.75 C 12.796875 0.75 11.332031 0.507812 10.09375 0.03125 C 8.851562 -0.445312 8.023438 -1.117188 7.609375 -1.984375 C 7.160156 -2.972656 6.632812 -4.539062 6.03125 -6.6875 C 5.4375 -8.832031 4.847656 -11.179688 4.265625 -13.734375 C 3.691406 -16.296875 3.144531 -18.898438 2.625 -21.546875 C 2.113281 -24.191406 1.710938 -26.523438 1.421875 -28.546875 C 2.003906 -29.117188 2.78125 -29.625 3.75 -30.0625 C 4.71875 -30.5 5.78125 -30.71875 6.9375 -30.71875 C 8.382812 -30.71875 9.570312 -30.394531 10.5 -29.75 C 11.425781 -29.113281 11.992188 -28.007812 12.203125 -26.4375 C 12.609375 -23.300781 12.957031 -20.710938 13.25 -18.671875 C 13.539062 -16.628906 13.773438 -14.957031 13.953125 -13.65625 C 14.140625 -12.351562 14.285156 -11.359375 14.390625 -10.671875 C 14.492188 -9.992188 14.585938 -9.453125 14.671875 -9.046875 L 14.921875 -9.046875 C 15.046875 -9.703125 15.257812 -10.660156 15.5625 -11.921875 C 15.875 -13.179688 16.238281 -14.613281 16.65625 -16.21875 C 17.070312 -17.832031 17.503906 -19.578125 17.953125 -21.453125 C 18.410156 -23.328125 18.863281 -25.195312 19.3125 -27.0625 C 20.144531 -27.507812 20.960938 -27.859375 21.765625 -28.109375 C 22.566406 -28.359375 23.566406 -28.484375 24.765625 -28.484375 C 26.210938 -28.484375 27.453125 -28.253906 28.484375 -27.796875 C 29.515625 -27.347656 30.175781 -26.648438 30.46875 -25.703125 C 30.957031 -23.878906 31.429688 -22.109375 31.890625 -20.390625 C 32.347656 -18.679688 32.757812 -17.09375 33.125 -15.625 C 33.5 -14.164062 33.828125 -12.867188 34.109375 -11.734375 C 34.398438 -10.597656 34.609375 -9.703125 34.734375 -9.046875 L 35.046875 -9.046875 C 35.503906 -12.222656 35.945312 -15.523438 36.375 -18.953125 C 36.8125 -22.378906 37.21875 -25.863281 37.59375 -29.40625 C 38.332031 -29.863281 39.113281 -30.195312 39.9375 -30.40625 C 40.757812 -30.613281 41.585938 -30.71875 42.421875 -30.71875 C 43.859375 -30.71875 45.050781 -30.40625 46 -29.78125 C 46.957031 -29.164062 47.4375 -28.09375 47.4375 -26.5625 C 47.4375 -25.90625 47.332031 -24.914062 47.125 -23.59375 C 46.914062 -22.269531 46.644531 -20.78125 46.3125 -19.125 C 45.988281 -17.476562 45.609375 -15.742188 45.171875 -13.921875 C 44.734375 -12.109375 44.296875 -10.351562 43.859375 -8.65625 C 43.429688 -6.96875 43.019531 -5.441406 42.625 -4.078125 C 42.238281 -2.722656 41.898438 -1.671875 41.609375 -0.921875 C 41.035156 -0.429688 40.148438 -0.03125 38.953125 0.28125 C 37.753906 0.59375 36.472656 0.75 35.109375 0.75 C 31.640625 0.75 29.597656 -0.117188 28.984375 -1.859375 C 28.734375 -2.597656 28.421875 -3.535156 28.046875 -4.671875 C 27.679688 -5.804688 27.289062 -7.054688 26.875 -8.421875 C 26.457031 -9.785156 26.0625 -11.195312 25.6875 -12.65625 C 25.320312 -14.125 25.015625 -15.539062 24.765625 -16.90625 C 24.472656 -15.457031 24.117188 -13.957031 23.703125 -12.40625 C 23.296875 -10.863281 22.875 -9.359375 22.4375 -7.890625 C 22.007812 -6.429688 21.609375 -5.09375 21.234375 -3.875 C 20.867188 -2.65625 20.582031 -1.671875 20.375 -0.921875 Z M 20.375 -0.921875 "/></g></g></g><g fill="#ffffff" fill-opacity="1"><g transform="translate(209.787143, 239.923366)"><g><path d="M 16.09375 -6.6875 C 16.800781 -6.6875 17.578125 -6.757812 18.421875 -6.90625 C 19.265625 -7.050781 19.894531 -7.25 20.3125 -7.5 L 20.3125 -12.453125 L 15.859375 -12.078125 C 14.703125 -11.992188 13.75 -11.742188 13 -11.328125 C 12.257812 -10.921875 11.890625 -10.300781 11.890625 -9.46875 C 11.890625 -8.644531 12.207031 -7.972656 12.84375 -7.453125 C 13.488281 -6.941406 14.570312 -6.6875 16.09375 -6.6875 Z M 15.609375 -31.015625 C 17.835938 -31.015625 19.867188 -30.785156 21.703125 -30.328125 C 23.535156 -29.878906 25.101562 -29.191406 26.40625 -28.265625 C 27.707031 -27.335938 28.707031 -26.160156 29.40625 -24.734375 C 30.113281 -23.304688 30.46875 -21.625 30.46875 -19.6875 L 30.46875 -5.828125 C 30.46875 -4.742188 30.164062 -3.863281 29.5625 -3.1875 C 28.96875 -2.507812 28.257812 -1.921875 27.4375 -1.421875 C 24.75 0.179688 20.96875 0.984375 16.09375 0.984375 C 13.90625 0.984375 11.929688 0.773438 10.171875 0.359375 C 8.421875 -0.046875 6.914062 -0.660156 5.65625 -1.484375 C 4.40625 -2.304688 3.4375 -3.359375 2.75 -4.640625 C 2.070312 -5.921875 1.734375 -7.410156 1.734375 -9.109375 C 1.734375 -11.953125 2.578125 -14.132812 4.265625 -15.65625 C 5.960938 -17.1875 8.585938 -18.140625 12.140625 -18.515625 L 20.25 -19.375 L 20.25 -19.8125 C 20.25 -21.007812 19.722656 -21.863281 18.671875 -22.375 C 17.617188 -22.894531 16.101562 -23.15625 14.125 -23.15625 C 12.550781 -23.15625 11.019531 -22.988281 9.53125 -22.65625 C 8.050781 -22.332031 6.710938 -21.921875 5.515625 -21.421875 C 4.972656 -21.796875 4.515625 -22.363281 4.140625 -23.125 C 3.773438 -23.882812 3.59375 -24.679688 3.59375 -25.515625 C 3.59375 -26.585938 3.847656 -27.441406 4.359375 -28.078125 C 4.878906 -28.722656 5.675781 -29.269531 6.75 -29.71875 C 7.945312 -30.175781 9.359375 -30.503906 10.984375 -30.703125 C 12.617188 -30.910156 14.160156 -31.015625 15.609375 -31.015625 Z M 15.609375 -31.015625 "/></g></g></g><g fill="#ffffff" fill-opacity="1"><g transform="translate(243.473384, 239.923366)"><g><path d="M 1.921875 -15.046875 C 1.921875 -17.773438 2.332031 -20.140625 3.15625 -22.140625 C 3.976562 -24.140625 5.125 -25.800781 6.59375 -27.125 C 8.0625 -28.445312 9.773438 -29.425781 11.734375 -30.0625 C 13.691406 -30.695312 15.804688 -31.015625 18.078125 -31.015625 C 18.898438 -31.015625 19.703125 -30.941406 20.484375 -30.796875 C 21.273438 -30.660156 21.921875 -30.488281 22.421875 -30.28125 L 22.421875 -40.3125 C 22.828125 -40.4375 23.484375 -40.570312 24.390625 -40.71875 C 25.304688 -40.863281 26.238281 -40.9375 27.1875 -40.9375 C 28.09375 -40.9375 28.90625 -40.875 29.625 -40.75 C 30.351562 -40.625 30.960938 -40.375 31.453125 -40 C 31.953125 -39.625 32.320312 -39.117188 32.5625 -38.484375 C 32.8125 -37.847656 32.9375 -37.015625 32.9375 -35.984375 L 32.9375 -6.625 C 32.9375 -4.6875 32.03125 -3.140625 30.21875 -1.984375 C 29.019531 -1.203125 27.46875 -0.515625 25.5625 0.078125 C 23.664062 0.679688 21.484375 0.984375 19.015625 0.984375 C 16.328125 0.984375 13.921875 0.613281 11.796875 -0.125 C 9.671875 -0.863281 7.875 -1.9375 6.40625 -3.34375 C 4.9375 -4.75 3.820312 -6.429688 3.0625 -8.390625 C 2.300781 -10.347656 1.921875 -12.566406 1.921875 -15.046875 Z M 19.5 -22.78125 C 17.269531 -22.78125 15.554688 -22.140625 14.359375 -20.859375 C 13.160156 -19.585938 12.5625 -17.648438 12.5625 -15.046875 C 12.5625 -12.484375 13.117188 -10.550781 14.234375 -9.25 C 15.347656 -7.957031 16.960938 -7.3125 19.078125 -7.3125 C 19.816406 -7.3125 20.484375 -7.421875 21.078125 -7.640625 C 21.679688 -7.867188 22.148438 -8.128906 22.484375 -8.421875 L 22.484375 -22.046875 C 21.648438 -22.535156 20.65625 -22.78125 19.5 -22.78125 Z M 19.5 -22.78125 "/></g></g></g><g fill="#ffffff" fill-opacity="1"><g transform="translate(279.760397, 239.923366)"><g><path d="M 2.96875 -38.453125 C 2.96875 -40.023438 3.492188 -41.347656 4.546875 -42.421875 C 5.597656 -43.492188 6.992188 -44.03125 8.734375 -44.03125 C 10.460938 -44.03125 11.851562 -43.492188 12.90625 -42.421875 C 13.957031 -41.347656 14.484375 -40.023438 14.484375 -38.453125 C 14.484375 -36.878906 13.957031 -35.554688 12.90625 -34.484375 C 11.851562 -33.410156 10.460938 -32.875 8.734375 -32.875 C 6.992188 -32.875 5.597656 -33.410156 4.546875 -34.484375 C 3.492188 -35.554688 2.96875 -36.878906 2.96875 -38.453125 Z M 14 -0.0625 C 13.539062 0.0195312 12.867188 0.132812 11.984375 0.28125 C 11.097656 0.425781 10.195312 0.5 9.28125 0.5 C 8.375 0.5 7.5625 0.4375 6.84375 0.3125 C 6.125 0.1875 5.515625 -0.0546875 5.015625 -0.421875 C 4.515625 -0.796875 4.128906 -1.300781 3.859375 -1.9375 C 3.597656 -2.582031 3.46875 -3.421875 3.46875 -4.453125 L 3.46875 -29.65625 C 3.925781 -29.738281 4.597656 -29.851562 5.484375 -30 C 6.367188 -30.144531 7.265625 -30.21875 8.171875 -30.21875 C 9.078125 -30.21875 9.890625 -30.15625 10.609375 -30.03125 C 11.335938 -29.90625 11.945312 -29.65625 12.4375 -29.28125 C 12.9375 -28.914062 13.320312 -28.410156 13.59375 -27.765625 C 13.863281 -27.128906 14 -26.296875 14 -25.265625 Z M 14 -0.0625 "/></g></g></g><g clip-path="url(#d820b8e99a)"><path fill="#ffffff" d="M 264.132812 156.226562 C 237.0625 148.902344 216.800781 155.085938 203.5 162.929688 C 221.683594 144.433594 249.429688 138.355469 258.3125 136.847656 Z M 232.128906 115.855469 L 239.765625 134.09375 C 225.371094 138.5625 206.566406 147.238281 193.835938 163.242188 C 201.886719 135.238281 223.917969 120.480469 232.128906 115.855469 Z M 142.761719 115.855469 C 150.96875 120.480469 173 135.183594 181.054688 163.292969 C 168.324219 147.292969 149.515625 138.613281 135.125 134.144531 Z M 116.574219 136.847656 C 125.460938 138.355469 153.203125 144.433594 171.390625 162.929688 C 158.089844 155.085938 137.824219 148.902344 110.757812 156.226562 Z M 199.132812 190.050781 L 175.753906 190.050781 C 170.609375 183.402344 148.371094 162.046875 87.636719 187.351562 L 92.882812 170.359375 C 153.464844 140.953125 183.390625 181.324219 184.640625 183.089844 C 184.691406 183.140625 184.742188 183.140625 184.792969 183.195312 C 184.847656 183.296875 184.898438 183.402344 185.003906 183.453125 C 185.054688 183.503906 185.054688 183.503906 185.054688 183.558594 C 185.160156 183.660156 185.261719 183.714844 185.417969 183.765625 C 185.523438 183.816406 185.625 183.921875 185.730469 183.972656 C 185.832031 184.023438 185.9375 184.128906 186.09375 184.179688 C 186.144531 184.179688 186.199219 184.234375 186.199219 184.234375 C 186.40625 184.335938 186.664062 184.335938 186.925781 184.386719 C 187.082031 184.386719 187.183594 184.492188 187.339844 184.492188 C 187.390625 184.492188 187.445312 184.492188 187.496094 184.492188 C 187.546875 184.492188 187.601562 184.492188 187.652344 184.492188 C 187.808594 184.492188 187.910156 184.441406 188.066406 184.386719 C 188.328125 184.335938 188.535156 184.335938 188.796875 184.234375 C 188.847656 184.234375 188.898438 184.179688 188.898438 184.179688 C 189.054688 184.128906 189.160156 184.023438 189.261719 183.972656 C 189.367188 183.921875 189.46875 183.867188 189.574219 183.765625 C 189.679688 183.660156 189.835938 183.609375 189.9375 183.558594 C 189.992188 183.503906 189.992188 183.503906 189.992188 183.453125 C 190.09375 183.347656 190.144531 183.296875 190.199219 183.195312 C 190.25 183.140625 190.300781 183.140625 190.355469 183.089844 C 191.601562 181.324219 221.527344 140.953125 282.109375 170.359375 L 287.359375 187.351562 C 226.566406 162.046875 204.277344 183.453125 199.132812 190.050781 Z M 199.132812 190.050781 " fill-opacity="1" fill-rule="nonzero"/></g></svg>